<svg width="20" height="21" viewBox="0 0 20 21" fill="none" xmlns="http://www.w3.org/2000/svg">
<path d="M2.5 3.8335H3.00526C3.85578 3.8335 4.56986 4.47391 4.6621 5.31942L5.3379 11.5142C5.43014 12.3597 6.14422 13.0002 6.99474 13.0002H14.205C14.9669 13.0002 15.6317 12.4836 15.82 11.7453L16.9699 7.23609C17.2387 6.18228 16.4425 5.15757 15.355 5.15757H5.5M5.52063 16.0209H6.14563M5.52063 16.6459H6.14563M14.6873 16.0209H15.3123M14.6873 16.6459H15.3123M6.66667 16.3335C6.66667 16.7937 6.29357 17.1668 5.83333 17.1668C5.3731 17.1668 5 16.7937 5 16.3335C5 15.8733 5.3731 15.5002 5.83333 15.5002C6.29357 15.5002 6.66667 15.8733 6.66667 16.3335ZM15.8333 16.3335C15.8333 16.7937 15.4602 17.1668 15 17.1668C14.5398 17.1668 14.1667 16.7937 14.1667 16.3335C14.1667 15.8733 14.5398 15.5002 15 15.5002C15.4602 15.5002 15.8333 15.8733 15.8333 16.3335Z" stroke="#EF0D04" stroke-width="1.5" stroke-linecap="round"/>
</svg>
