<svg width="21" height="20" viewBox="0 0 21 20" fill="none" xmlns="http://www.w3.org/2000/svg">
<path d="M18.8153 10.2932C18.8258 9.66825 18.7631 9.04425 18.6286 8.43469H10.334V11.8084H15.2028C15.1106 12.3999 14.9031 12.9661 14.5927 13.473C14.2823 13.9799 13.8755 14.4169 13.3967 14.7578L13.3797 14.8708L16.0025 16.9615L16.1841 16.9802C17.8527 15.3943 18.815 13.0608 18.815 10.2932" fill="#4285F4"/>
<path d="M10.3357 19.1825C12.721 19.1825 14.7235 18.3743 16.1863 16.9804L13.3984 14.758C12.6524 15.2935 11.6512 15.6673 10.3357 15.6673C9.21851 15.6606 8.13174 15.292 7.22958 14.6139C6.32741 13.9358 5.65568 12.9826 5.30968 11.8895L5.20614 11.8985L2.479 14.0702L2.44336 14.1722C3.17784 15.6785 4.30503 16.9448 5.69889 17.8296C7.09274 18.7144 8.6983 19.1829 10.336 19.1825" fill="#34A853"/>
<path d="M5.30866 11.8895C5.11542 11.3109 5.0157 10.7035 5.01349 10.0916C5.01705 9.48073 5.11308 8.87415 5.29813 8.29369L5.29321 8.17318L2.53264 5.96655L2.44234 6.01074C1.82274 7.27658 1.5 8.67419 1.5 10.0915C1.5 11.5089 1.82274 12.9065 2.44234 14.1723L5.30866 11.8895Z" fill="#FBBC05"/>
<path d="M10.3341 4.51579C11.6 4.49556 12.8244 4.9807 13.7502 5.86939L16.2436 3.36427C14.6444 1.82053 12.5267 0.973497 10.3341 1.00063C8.69637 1.00023 7.09082 1.46861 5.69696 2.35338C4.30311 3.23816 3.17591 4.50446 2.44141 6.01069L5.29822 8.29364C5.64763 7.20073 6.32159 6.24823 7.22508 5.57045C8.12857 4.89266 9.21601 4.52377 10.3341 4.51579Z" fill="#EB4335"/>
</svg>
