<svg width="20" height="20" viewBox="0 0 20 20" fill="none" xmlns="http://www.w3.org/2000/svg">
<path fill-rule="evenodd" clip-rule="evenodd" d="M4.41009 4.41075C4.73553 4.08531 5.26317 4.08531 5.5886 4.41075L9.99935 8.82149L14.4101 4.41075C14.7355 4.08531 15.2632 4.08531 15.5886 4.41075C15.914 4.73619 15.914 5.26382 15.5886 5.58926L11.1779 10L15.5886 14.4107C15.914 14.7362 15.914 15.2638 15.5886 15.5893C15.2632 15.9147 14.7355 15.9147 14.4101 15.5893L9.99935 11.1785L5.5886 15.5893C5.26317 15.9147 4.73553 15.9147 4.41009 15.5893C4.08466 15.2638 4.08466 14.7362 4.41009 14.4107L8.82084 10L4.41009 5.58926C4.08466 5.26382 4.08466 4.73619 4.41009 4.41075Z" fill="#858585"/>
</svg>
