<svg width="14" height="13" viewBox="0 0 14 13" fill="none" xmlns="http://www.w3.org/2000/svg">
<path d="M2.83464 11.5V2.37667C2.83458 2.18277 2.89892 1.99435 3.01757 1.84099C3.13621 1.68763 3.30244 1.57802 3.49013 1.52938C3.67783 1.48074 3.87637 1.49582 4.05456 1.57226C4.23276 1.64869 4.38052 1.78215 4.47464 1.95167L9.52797 11.0483C9.62209 11.2179 9.76985 11.3513 9.94804 11.4277C10.1262 11.5042 10.3248 11.5193 10.5125 11.4706C10.7002 11.422 10.8664 11.3124 10.985 11.159C11.1037 11.0057 11.168 10.8172 11.168 10.6233V1.5M1.16797 4.83333H12.8346M1.16797 8.16667H12.8346" stroke="#1E1E1E" stroke-width="2" stroke-linecap="round" stroke-linejoin="round"/>
</svg>
