<svg width="33" height="14" viewBox="0 0 33 14" fill="none" xmlns="http://www.w3.org/2000/svg">
<path d="M19.2131 4.38663C19.2131 6.28192 17.8842 7.63488 16.0272 7.63488H14.2776C14.2582 7.63488 14.2391 7.6387 14.2213 7.64611C14.2034 7.65352 14.1873 7.66439 14.1736 7.67808C14.16 7.69176 14.1492 7.70801 14.1419 7.72588C14.1346 7.74375 14.1308 7.76289 14.1309 7.78221V10.2732C14.1309 10.3121 14.1155 10.3495 14.088 10.3771C14.0606 10.4047 14.0233 10.4203 13.9843 10.4205H12.76C12.7309 10.4204 12.7025 10.4117 12.6783 10.3955C12.6541 10.3793 12.6353 10.3563 12.6241 10.3294C12.6167 10.3118 12.6128 10.293 12.6127 10.2739V1.28499C12.6126 1.26568 12.6163 1.24653 12.6236 1.22866C12.631 1.21079 12.6417 1.19455 12.6554 1.18086C12.669 1.16717 12.6852 1.1563 12.703 1.14889C12.7209 1.14148 12.74 1.13766 12.7593 1.13766H16.035C17.8842 1.13553 19.2131 2.48849 19.2131 4.38663ZM17.6863 4.38663C17.6863 3.297 16.9432 2.50059 15.9353 2.50059H14.2776C14.2582 2.50059 14.2391 2.50441 14.2213 2.51182C14.2034 2.51923 14.1873 2.5301 14.1736 2.54379C14.16 2.55748 14.1492 2.57372 14.1419 2.59159C14.1346 2.60946 14.1308 2.6286 14.1309 2.64792V6.1168C14.1309 6.15568 14.1464 6.19298 14.1739 6.22047C14.2014 6.24797 14.2387 6.26341 14.2776 6.26341H15.9353C16.9432 6.27053 17.6863 5.47341 17.6863 4.38663ZM19.5762 8.69604C19.5635 8.40537 19.6236 8.11612 19.7511 7.8546C19.8787 7.59308 20.0696 7.36759 20.3065 7.1986C20.7841 6.83919 21.5307 6.65343 22.6269 6.615L23.7942 6.57372V6.22925C23.7942 5.53889 23.3316 5.24709 22.5885 5.24709C21.8454 5.24709 21.3742 5.51042 21.266 5.94101C21.2571 5.97129 21.2385 5.99778 21.213 6.01633C21.1875 6.03488 21.1565 6.04444 21.125 6.04349H19.9719C19.9507 6.04408 19.9296 6.03997 19.9101 6.03147C19.8907 6.02296 19.8733 6.01028 19.8593 5.99431C19.8453 5.97834 19.835 5.95948 19.8291 5.93907C19.8232 5.91866 19.8219 5.89721 19.8253 5.87624C19.9961 4.85565 20.8453 4.07988 22.6411 4.07988C24.5516 4.07988 25.2413 4.96952 25.2413 6.66767V10.2732C25.241 10.3125 25.225 10.3501 25.197 10.3777C25.169 10.4053 25.1312 10.4207 25.0919 10.4205H23.9295C23.8906 10.4204 23.8533 10.4051 23.8256 10.3778C23.812 10.3642 23.8012 10.3479 23.7939 10.3301C23.7865 10.3123 23.7828 10.2932 23.7829 10.2739V10.0042C23.7833 9.98188 23.7769 9.95998 23.7647 9.94137C23.7524 9.92276 23.7348 9.9083 23.7141 9.8999C23.6935 9.8915 23.6708 9.88955 23.649 9.89432C23.6272 9.89908 23.6074 9.91034 23.5921 9.92659C23.2433 10.3059 22.6803 10.5799 21.7785 10.5799C20.4517 10.5799 19.5762 9.88959 19.5762 8.69604ZM23.7942 7.91459V7.63488L22.2824 7.71459C21.4859 7.75516 21.0225 8.08611 21.0225 8.64338C21.0225 9.14727 21.4475 9.42626 22.1899 9.42626C23.1985 9.42626 23.7942 8.8818 23.7942 7.91459ZM26.4087 13.145V12.1002C26.4089 12.0783 26.4139 12.0567 26.4234 12.0369C26.4329 12.0172 26.4467 11.9997 26.4636 11.9859C26.4806 11.972 26.5004 11.9621 26.5217 11.9567C26.5429 11.9514 26.5651 11.9508 26.5866 11.955C26.7646 11.9884 26.9461 12.0055 27.1276 12.0062C27.4396 12.0214 27.7477 11.9315 28.0026 11.7508C28.2575 11.5702 28.4444 11.3092 28.5334 11.0098L28.6088 10.7693C28.6198 10.737 28.6198 10.7019 28.6088 10.6696L26.1866 4.44926C26.1778 4.42671 26.1747 4.40237 26.1774 4.37834C26.1801 4.3543 26.1886 4.33128 26.2022 4.31126C26.2158 4.29124 26.2341 4.27482 26.2554 4.2634C26.2767 4.25198 26.3005 4.24591 26.3247 4.24571H27.4991C27.5291 4.24602 27.5584 4.25535 27.583 4.27248C27.6076 4.28962 27.6265 4.31377 27.6372 4.34179L29.2822 8.72878C29.2925 8.75793 29.3116 8.78316 29.3368 8.80101C29.3621 8.81886 29.3922 8.82844 29.4231 8.82844C29.454 8.82844 29.4842 8.81886 29.5094 8.80101C29.5347 8.78316 29.5538 8.75793 29.5641 8.72878L30.9926 4.35389C31.0025 4.32399 31.0216 4.29798 31.0472 4.27957C31.0728 4.26117 31.1035 4.25131 31.135 4.2514H32.35C32.3744 4.25155 32.3983 4.25759 32.4198 4.26899C32.4413 4.28039 32.4597 4.29683 32.4735 4.3169C32.4873 4.33696 32.496 4.36006 32.4989 4.38423C32.5018 4.40839 32.4989 4.4329 32.4902 4.45566L29.8993 11.3635C29.3028 12.9692 28.28 13.3798 27.1539 13.3798C26.9404 13.3855 26.7268 13.3599 26.5204 13.3037C26.4861 13.2946 26.4561 13.2737 26.4356 13.2447C26.4152 13.2156 26.4056 13.1803 26.4087 13.145ZM4.74522 0.619538C3.20211 0.608545 1.71345 1.18927 0.585491 2.24224C0.537254 2.28641 0.507183 2.34695 0.50113 2.41207C0.495078 2.47719 0.513478 2.54224 0.552748 2.59454L1.25102 3.54823C1.27365 3.57999 1.30298 3.60639 1.33692 3.6256C1.37086 3.6448 1.4086 3.65633 1.44747 3.65939C1.48635 3.66244 1.52543 3.65694 1.56195 3.64327C1.59848 3.6296 1.63156 3.60809 1.65888 3.58026C2.06446 3.17482 2.5468 2.85428 3.0777 2.63738C3.60861 2.42047 4.17742 2.31155 4.75091 2.31697C7.14539 2.31697 8.39601 4.11903 8.39601 5.89831C8.39601 7.83274 7.08204 9.19353 5.19365 9.22058C3.73447 9.22058 2.63475 8.25336 2.63475 6.97584C2.63627 6.65309 2.70939 6.33471 2.84885 6.04364C2.98831 5.75257 3.19062 5.49608 3.44121 5.29264C3.49418 5.24839 3.52767 5.18512 3.53446 5.11644C3.54125 5.04776 3.5208 4.97915 3.47751 4.92539L2.74365 3.99875C2.72146 3.97072 2.69387 3.94743 2.66253 3.93024C2.63119 3.91305 2.59671 3.90232 2.56115 3.89867C2.52559 3.89502 2.48966 3.89853 2.45547 3.909C2.42129 3.91946 2.38955 3.93667 2.36213 3.9596C1.91143 4.32268 1.54773 4.78202 1.2977 5.30394C1.04767 5.82586 0.917655 6.39713 0.917187 6.97584C0.917187 9.17503 2.78636 10.9002 5.18083 10.9145H5.21286C8.05577 10.8774 10.1114 8.7722 10.1114 5.89475C10.1114 3.3397 8.22945 0.619538 4.74593 0.619538H4.74522Z" fill="#5A31F4"/>
</svg>
