<svg width="16" height="16" viewBox="0 0 21 20" fill="none" xmlns="http://www.w3.org/2000/svg">
<path fill-rule="evenodd" clip-rule="evenodd" d="M4.57611 4.41076C4.90155 4.08533 5.42918 4.08533 5.75462 4.41076L10.1654 8.82151L14.5761 4.41076C14.9015 4.08533 15.4292 4.08533 15.7546 4.41076C16.0801 4.7362 16.0801 5.26384 15.7546 5.58928L11.3439 10L15.7546 14.4108C16.0801 14.7362 16.0801 15.2638 15.7546 15.5893C15.4292 15.9147 14.9015 15.9147 14.5761 15.5893L10.1654 11.1785L5.75462 15.5893C5.42918 15.9147 4.90155 15.9147 4.57611 15.5893C4.25067 15.2638 4.25067 14.7362 4.57611 14.4108L8.98685 10L4.57611 5.58928C4.25067 5.26384 4.25067 4.7362 4.57611 4.41076Z" fill="#E33B32"/>
</svg>
