<svg width="16" height="16" viewBox="0 0 12 12" fill="none" xmlns="http://www.w3.org/2000/svg">
<path d="M10.4697 11.5303C10.7626 11.8232 11.2374 11.8232 11.5303 11.5303C11.8232 11.2374 11.8232 10.7626 11.5303 10.4697L10.4697 11.5303ZM8.48529 5.11765C8.48529 6.97755 6.97755 8.48529 5.11765 8.48529V9.98529C7.80597 9.98529 9.98529 7.80597 9.98529 5.11765H8.48529ZM5.11765 8.48529C3.25775 8.48529 1.75 6.97755 1.75 5.11765H0.25C0.25 7.80597 2.42932 9.98529 5.11765 9.98529V8.48529ZM1.75 5.11765C1.75 3.25775 3.25775 1.75 5.11765 1.75V0.25C2.42932 0.25 0.25 2.42932 0.25 5.11765H1.75ZM5.11765 1.75C6.97755 1.75 8.48529 3.25775 8.48529 5.11765H9.98529C9.98529 2.42932 7.80597 0.25 5.11765 0.25V1.75ZM7.52849 8.58915L10.4697 11.5303L11.5303 10.4697L8.58915 7.52849L7.52849 8.58915Z" fill="#323231"/>
</svg>
