<svg width="221" height="220" viewBox="0 0 221 220" fill="none" xmlns="http://www.w3.org/2000/svg">
<circle opacity="0.2" cx="110.5" cy="110" r="110" fill="#17D85C"/>
<circle cx="110.501" cy="110" r="73.3333" fill="#17D85C"/>
<path d="M137.593 89.5965C136.711 89.6228 135.874 89.9914 135.259 90.6243L100.314 125.57L89.1337 114.39C88.8209 114.064 88.4462 113.804 88.0315 113.625C87.6169 113.445 87.1707 113.351 86.719 113.346C86.2673 113.341 85.8193 113.427 85.4011 113.598C84.9829 113.769 84.603 114.021 84.2836 114.34C83.9642 114.66 83.7117 115.04 83.541 115.458C83.3702 115.876 83.2846 116.324 83.2892 116.776C83.2938 117.228 83.3885 117.674 83.5677 118.088C83.7469 118.503 84.0071 118.878 84.3329 119.191L97.9131 132.771C98.5499 133.407 99.4133 133.765 100.314 133.765C101.214 133.765 102.077 133.407 102.714 132.771L140.06 95.4251C140.55 94.9483 140.885 94.3343 141.021 93.6637C141.157 92.9931 141.087 92.2972 140.82 91.6671C140.553 91.037 140.102 90.5022 139.527 90.1327C138.951 89.7632 138.277 89.5763 137.593 89.5965Z" fill="white"/>
</svg>
