<svg width="21" height="20" viewBox="0 0 21 20" fill="none" xmlns="http://www.w3.org/2000/svg">
<path d="M18.4296 6.56249C18.4557 6.66666 18.4687 6.83593 18.4687 7.0703C18.4687 8.9453 18.013 10.7552 17.1015 12.5C16.164 14.3489 14.8489 15.8203 13.1562 16.914C11.3073 18.138 9.18488 18.75 6.78905 18.75C4.49739 18.75 2.40104 18.138 0.5 16.914C0.786457 16.9401 1.11198 16.9531 1.47656 16.9531C3.3776 16.9531 5.08332 16.3672 6.59374 15.1953C5.68228 15.1953 4.8815 14.9284 4.1914 14.3945C3.50129 13.8606 3.02604 13.1901 2.76562 12.3828C3.02604 12.4088 3.27343 12.4219 3.50781 12.4219C3.87239 12.4219 4.23697 12.3828 4.60155 12.3047C3.66405 12.0963 2.88281 11.6146 2.25781 10.8594C1.63281 10.1041 1.32031 9.24478 1.32031 8.28124V8.20311C1.89323 8.54165 2.5052 8.72394 3.15624 8.74999C2.60937 8.35936 2.16666 7.86457 1.82812 7.26561C1.48958 6.66666 1.32031 6.00911 1.32031 5.29296C1.32031 4.57682 1.51562 3.89323 1.90625 3.24219C2.92187 4.51822 4.16536 5.53385 5.63671 6.28905C7.10806 7.04426 8.67706 7.46093 10.3437 7.53905C10.2916 7.22655 10.2656 6.91405 10.2656 6.60155C10.2656 5.87239 10.4479 5.1888 10.8125 4.55078C11.1771 3.91276 11.6718 3.41146 12.2968 3.04687C12.9218 2.68229 13.5989 2.5 14.3281 2.5C14.927 2.5 15.4804 2.61719 15.9882 2.85156C16.4961 3.08594 16.9453 3.39844 17.3359 3.78906C18.2734 3.60677 19.1458 3.28125 19.9531 2.8125C19.6406 3.77604 19.0416 4.53124 18.1562 5.07812C18.9375 4.97395 19.7187 4.7526 20.5 4.41406C19.927 5.24739 19.2369 5.96353 18.4296 6.56249Z" fill="#00A2F3"/>
</svg>
